G04*
G04 #@! TF.GenerationSoftware,Altium Limited,Altium Designer,20.0.2 (26)*
G04*
G04 Layer_Physical_Order=2*
G04 Layer_Color=16711680*
%FSLAX25Y25*%
%MOIN*%
G70*
G01*
G75*
%ADD12C,0.01500*%
%ADD13C,0.21457*%
%ADD14C,0.06693*%
%ADD15C,0.02400*%
G04:AMPARAMS|DCode=16|XSize=100mil|YSize=50mil|CornerRadius=12.5mil|HoleSize=0mil|Usage=FLASHONLY|Rotation=180.000|XOffset=0mil|YOffset=0mil|HoleType=Round|Shape=RoundedRectangle|*
%AMROUNDEDRECTD16*
21,1,0.10000,0.02500,0,0,180.0*
21,1,0.07500,0.05000,0,0,180.0*
1,1,0.02500,-0.03750,0.01250*
1,1,0.02500,0.03750,0.01250*
1,1,0.02500,0.03750,-0.01250*
1,1,0.02500,-0.03750,-0.01250*
%
%ADD16ROUNDEDRECTD16*%
G04:AMPARAMS|DCode=17|XSize=70mil|YSize=35mil|CornerRadius=8.75mil|HoleSize=0mil|Usage=FLASHONLY|Rotation=180.000|XOffset=0mil|YOffset=0mil|HoleType=Round|Shape=RoundedRectangle|*
%AMROUNDEDRECTD17*
21,1,0.07000,0.01750,0,0,180.0*
21,1,0.05250,0.03500,0,0,180.0*
1,1,0.01750,-0.02625,0.00875*
1,1,0.01750,0.02625,0.00875*
1,1,0.01750,0.02625,-0.00875*
1,1,0.01750,-0.02625,-0.00875*
%
%ADD17ROUNDEDRECTD17*%
G36*
X32328Y111058D02*
X34458Y110375D01*
X36457Y109373D01*
X38278Y108073D01*
X39876Y106509D01*
X41213Y104716D01*
X42258Y102738D01*
X42985Y100623D01*
X43376Y98421D01*
X43400Y97303D01*
X43424Y97270D01*
X43462Y97198D01*
X43488Y97121D01*
X43501Y97041D01*
Y91621D01*
X43524Y91169D01*
X43700Y90281D01*
X44046Y89445D01*
X44548Y88693D01*
X44853Y88357D01*
X44853Y88357D01*
X44854Y88355D01*
X45262Y87967D01*
X46130Y87254D01*
X47064Y86630D01*
X48055Y86101D01*
X49093Y85671D01*
X50168Y85345D01*
X51270Y85125D01*
X52388Y85015D01*
X52950Y85001D01*
X57600D01*
X57784Y84925D01*
X57925Y84784D01*
X58002Y84600D01*
Y27900D01*
X57925Y27716D01*
X57784Y27575D01*
X57600Y27498D01*
X53410D01*
X53380Y27431D01*
X53286Y27319D01*
X53163Y27239D01*
X53023Y27197D01*
X52950D01*
X52388Y27183D01*
X51270Y27073D01*
X50168Y26854D01*
X49093Y26528D01*
X48055Y26098D01*
X47064Y25568D01*
X46130Y24944D01*
X45262Y24231D01*
X44854Y23844D01*
X44854Y23843D01*
X44853Y23842D01*
X44548Y23506D01*
X44046Y22753D01*
X43700Y21917D01*
X43524Y21030D01*
X43501Y20577D01*
Y15158D01*
X43488Y15078D01*
X43462Y15000D01*
X43424Y14928D01*
X43400Y14896D01*
X43376Y13778D01*
X42985Y11576D01*
X42258Y9460D01*
X41213Y7483D01*
X39876Y5690D01*
X38278Y4125D01*
X36457Y2826D01*
X34458Y1823D01*
X32328Y1141D01*
X30118Y796D01*
X27882D01*
X25672Y1141D01*
X23542Y1823D01*
X21543Y2826D01*
X19722Y4125D01*
X18124Y5690D01*
X16787Y7483D01*
X15742Y9460D01*
X15015Y11576D01*
X14624Y13778D01*
X14600Y14896D01*
X14576Y14928D01*
X14538Y15000D01*
X14512Y15078D01*
X14499Y15158D01*
Y20577D01*
X14476Y21030D01*
X14300Y21917D01*
X13954Y22753D01*
X13452Y23506D01*
X13148Y23842D01*
X13147Y23842D01*
X13146Y23844D01*
X12738Y24231D01*
X11870Y24944D01*
X10936Y25568D01*
X9945Y26098D01*
X8907Y26528D01*
X7832Y26854D01*
X6730Y27073D01*
X5612Y27183D01*
X5050Y27197D01*
X4977D01*
X4837Y27239D01*
X4714Y27319D01*
X4620Y27431D01*
X4590Y27498D01*
X900D01*
X716Y27575D01*
X575Y27716D01*
X499Y27900D01*
Y84600D01*
X575Y84784D01*
X716Y84925D01*
X900Y85001D01*
X5050D01*
X5612Y85015D01*
X6730Y85125D01*
X7832Y85345D01*
X8907Y85671D01*
X9945Y86101D01*
X10936Y86630D01*
X11870Y87254D01*
X12738Y87967D01*
X13145Y88355D01*
X13148Y88357D01*
X13334Y88562D01*
X13452Y88693D01*
X13472Y88722D01*
X13954Y89445D01*
X14300Y90281D01*
X14476Y91169D01*
X14499Y91621D01*
Y97041D01*
X14512Y97121D01*
X14538Y97198D01*
X14576Y97270D01*
X14600Y97303D01*
X14624Y98421D01*
X15015Y100623D01*
X15742Y102738D01*
X16787Y104716D01*
X18124Y106509D01*
X19722Y108073D01*
X21543Y109373D01*
X23542Y110375D01*
X25672Y111058D01*
X27882Y111403D01*
X30118D01*
X32328Y111058D01*
D02*
G37*
%LPC*%
G36*
X29776Y105524D02*
X28225D01*
X28163Y105498D01*
X28098Y105511D01*
X26577Y105208D01*
X26521Y105171D01*
X26455D01*
X25022Y104578D01*
X24975Y104531D01*
X24909Y104518D01*
X23620Y103656D01*
X23583Y103601D01*
X23521Y103575D01*
X22425Y102479D01*
X22399Y102417D01*
X22344Y102380D01*
X21482Y101091D01*
X21469Y101025D01*
X21422Y100978D01*
X20829Y99545D01*
Y99479D01*
X20792Y99423D01*
X20489Y97902D01*
X20502Y97837D01*
X20477Y97776D01*
Y96224D01*
X20502Y96163D01*
X20489Y96098D01*
X20792Y94577D01*
X20829Y94521D01*
Y94455D01*
X21422Y93022D01*
X21469Y92975D01*
X21482Y92909D01*
X22344Y91620D01*
X22399Y91583D01*
X22425Y91521D01*
X23521Y90425D01*
X23583Y90399D01*
X23620Y90344D01*
X24909Y89482D01*
X24975Y89469D01*
X25022Y89422D01*
X26455Y88829D01*
X26521D01*
X26577Y88792D01*
X28098Y88489D01*
X28163Y88502D01*
X28225Y88477D01*
X29776D01*
X29837Y88502D01*
X29902Y88489D01*
X31424Y88792D01*
X31479Y88829D01*
X31545D01*
X32978Y89422D01*
X33025Y89469D01*
X33090Y89482D01*
X34380Y90344D01*
X34417Y90399D01*
X34479Y90425D01*
X35575Y91521D01*
X35601Y91583D01*
X35656Y91620D01*
X36518Y92909D01*
X36531Y92975D01*
X36578Y93022D01*
X37171Y94455D01*
Y94521D01*
X37208Y94577D01*
X37511Y96098D01*
X37498Y96163D01*
X37523Y96224D01*
Y97776D01*
X37498Y97837D01*
X37511Y97902D01*
X37208Y99423D01*
X37171Y99479D01*
Y99545D01*
X36578Y100978D01*
X36531Y101025D01*
X36518Y101091D01*
X35656Y102380D01*
X35601Y102417D01*
X35575Y102479D01*
X34479Y103575D01*
X34417Y103601D01*
X34380Y103656D01*
X33091Y104518D01*
X33025Y104531D01*
X32978Y104578D01*
X31545Y105171D01*
X31479D01*
X31424Y105208D01*
X29902Y105511D01*
X29837Y105498D01*
X29776Y105524D01*
D02*
G37*
G36*
X46620Y78585D02*
X45590Y78449D01*
X44630Y78051D01*
X43806Y77419D01*
X43173Y76595D01*
X42775Y75634D01*
X42640Y74604D01*
X42775Y73574D01*
X43173Y72614D01*
X43355Y72376D01*
X43109Y71876D01*
X17879D01*
X17352Y71772D01*
X16905Y71473D01*
X16027Y70595D01*
X15728Y70148D01*
X15624Y69621D01*
Y67070D01*
X15430Y66877D01*
X14111D01*
X13993Y67472D01*
X13584Y68084D01*
X12972Y68493D01*
X12250Y68636D01*
X4750D01*
X4028Y68493D01*
X3416Y68084D01*
X3007Y67472D01*
X2864Y66750D01*
Y64250D01*
X3007Y63528D01*
X3416Y62916D01*
X4028Y62507D01*
X4750Y62364D01*
X12250D01*
X12972Y62507D01*
X13584Y62916D01*
X13993Y63528D01*
X14111Y64124D01*
X16000D01*
X16527Y64228D01*
X16973Y64527D01*
X17973Y65527D01*
X18272Y65973D01*
X18376Y66500D01*
Y69051D01*
X18449Y69124D01*
X44000D01*
X44527Y69228D01*
X44973Y69527D01*
X46134Y70688D01*
X46620Y70624D01*
X47651Y70759D01*
X48611Y71157D01*
X49435Y71790D01*
X50068Y72614D01*
X50465Y73574D01*
X50601Y74604D01*
X50465Y75634D01*
X50068Y76595D01*
X49435Y77419D01*
X48611Y78051D01*
X47651Y78449D01*
X46620Y78585D01*
D02*
G37*
G36*
X29300Y67463D02*
X27522Y67323D01*
X25789Y66907D01*
X24141Y66225D01*
X22621Y65293D01*
X21265Y64135D01*
X20107Y62779D01*
X19175Y61259D01*
X18493Y59611D01*
X18077Y57878D01*
X17982Y56674D01*
X17470Y56540D01*
X17298Y56798D01*
X16702Y57196D01*
X16000Y57335D01*
X15298Y57196D01*
X14820Y56876D01*
X14111D01*
X13993Y57472D01*
X13584Y58084D01*
X12972Y58493D01*
X12250Y58636D01*
X4750D01*
X4028Y58493D01*
X3416Y58084D01*
X3007Y57472D01*
X2864Y56750D01*
Y54250D01*
X3007Y53528D01*
X3416Y52916D01*
X4028Y52507D01*
X4750Y52364D01*
X12250D01*
X12972Y52507D01*
X13584Y52916D01*
X13993Y53528D01*
X14111Y54124D01*
X14820D01*
X15298Y53804D01*
X16000Y53665D01*
X16702Y53804D01*
X17298Y54202D01*
X17554Y54586D01*
X18066Y54453D01*
X18077Y54322D01*
X18493Y52588D01*
X19175Y50941D01*
X20107Y49421D01*
X21265Y48065D01*
X22621Y46907D01*
X24141Y45975D01*
X25789Y45293D01*
X27522Y44877D01*
X29300Y44737D01*
X31078Y44877D01*
X32811Y45293D01*
X34459Y45975D01*
X35979Y46907D01*
X37335Y48065D01*
X38493Y49421D01*
X39425Y50941D01*
X40107Y52588D01*
X40523Y54322D01*
X40663Y56100D01*
X40523Y57878D01*
X40107Y59611D01*
X39425Y61259D01*
X38493Y62779D01*
X37335Y64135D01*
X35979Y65293D01*
X34459Y66225D01*
X32811Y66907D01*
X31078Y67323D01*
X29300Y67463D01*
D02*
G37*
G36*
X12250Y48636D02*
X4750D01*
X4028Y48493D01*
X3416Y48084D01*
X3007Y47472D01*
X2864Y46750D01*
Y44250D01*
X3007Y43528D01*
X3416Y42916D01*
X4028Y42507D01*
X4750Y42364D01*
X12250D01*
X12972Y42507D01*
X13584Y42916D01*
X13993Y43528D01*
X14111Y44124D01*
X19430D01*
X20000Y43553D01*
Y41947D01*
X19931Y41877D01*
X15574D01*
X14998Y41763D01*
X14510Y41437D01*
X14184Y40949D01*
X14070Y40374D01*
Y38624D01*
X14184Y38048D01*
X14510Y37560D01*
X14998Y37234D01*
X15574Y37120D01*
X20824D01*
X21399Y37234D01*
X21577Y37353D01*
X22077Y37086D01*
X22077Y34911D01*
X21577Y34644D01*
X21399Y34763D01*
X20824Y34877D01*
X15574D01*
X14998Y34763D01*
X14510Y34437D01*
X14184Y33949D01*
X14070Y33374D01*
Y31624D01*
X14184Y31048D01*
X14510Y30560D01*
X14998Y30234D01*
X15574Y30120D01*
X20824D01*
X21399Y30234D01*
X21577Y30353D01*
X22077Y30086D01*
Y29971D01*
X22267Y29511D01*
X22727Y29321D01*
X36727Y29321D01*
X37186Y29511D01*
X37376Y29971D01*
X37376Y37049D01*
X37876Y37316D01*
X37998Y37234D01*
X38574Y37120D01*
X43824D01*
X44399Y37234D01*
X44887Y37560D01*
X45213Y38048D01*
X45228Y38123D01*
X48821D01*
X49298Y37804D01*
X50000Y37665D01*
X50702Y37804D01*
X51298Y38202D01*
X51696Y38798D01*
X51835Y39500D01*
X51696Y40202D01*
X51298Y40798D01*
X50702Y41196D01*
X50000Y41335D01*
X49298Y41196D01*
X48819Y40876D01*
X45228D01*
X45213Y40949D01*
X44887Y41437D01*
X44399Y41763D01*
X43824Y41877D01*
X38574D01*
X37998Y41763D01*
X37876Y41682D01*
X37376Y41949D01*
Y41971D01*
X37186Y42430D01*
X36727Y42620D01*
X22753Y42620D01*
Y44123D01*
X22753Y44123D01*
X22648Y44650D01*
X22350Y45097D01*
X22350Y45097D01*
X20973Y46473D01*
X20527Y46772D01*
X20000Y46876D01*
X14111D01*
X13993Y47472D01*
X13584Y48084D01*
X12972Y48493D01*
X12250Y48636D01*
D02*
G37*
G36*
X29776Y23722D02*
X28225D01*
X28163Y23697D01*
X28098Y23710D01*
X26577Y23407D01*
X26521Y23370D01*
X26455D01*
X25022Y22776D01*
X24975Y22729D01*
X24909Y22716D01*
X23620Y21855D01*
X23583Y21799D01*
X23521Y21774D01*
X22425Y20677D01*
X22399Y20616D01*
X22344Y20579D01*
X21482Y19289D01*
X21469Y19224D01*
X21422Y19177D01*
X20829Y17744D01*
Y17677D01*
X20792Y17622D01*
X20489Y16101D01*
X20502Y16036D01*
X20477Y15974D01*
Y14423D01*
X20502Y14362D01*
X20489Y14296D01*
X20792Y12775D01*
X20829Y12720D01*
Y12653D01*
X21422Y11220D01*
X21469Y11173D01*
X21482Y11108D01*
X22344Y9818D01*
X22399Y9781D01*
X22425Y9720D01*
X23521Y8623D01*
X23583Y8598D01*
X23620Y8542D01*
X24909Y7681D01*
X24975Y7668D01*
X25022Y7621D01*
X26455Y7027D01*
X26521D01*
X26577Y6990D01*
X28098Y6688D01*
X28163Y6701D01*
X28225Y6675D01*
X29776D01*
X29837Y6701D01*
X29902Y6688D01*
X31424Y6990D01*
X31479Y7027D01*
X31545D01*
X32978Y7621D01*
X33025Y7668D01*
X33090Y7681D01*
X34380Y8542D01*
X34417Y8598D01*
X34479Y8623D01*
X35575Y9720D01*
X35601Y9781D01*
X35656Y9818D01*
X36518Y11108D01*
X36531Y11173D01*
X36578Y11220D01*
X37171Y12653D01*
Y12720D01*
X37208Y12775D01*
X37511Y14296D01*
X37498Y14362D01*
X37523Y14423D01*
Y15974D01*
X37498Y16036D01*
X37511Y16101D01*
X37208Y17622D01*
X37171Y17677D01*
Y17744D01*
X36578Y19177D01*
X36531Y19224D01*
X36518Y19289D01*
X35656Y20579D01*
X35601Y20616D01*
X35575Y20677D01*
X34479Y21774D01*
X34417Y21799D01*
X34380Y21855D01*
X33091Y22716D01*
X33025Y22729D01*
X32978Y22776D01*
X31545Y23370D01*
X31479D01*
X31424Y23407D01*
X29902Y23710D01*
X29837Y23697D01*
X29776Y23722D01*
D02*
G37*
%LPD*%
D12*
X41199Y39499D02*
X41199Y39499D01*
X49999D01*
X50000Y39500D01*
X8500Y55500D02*
X16000D01*
X21377Y41377D02*
Y44123D01*
X19499Y39499D02*
X21377Y41377D01*
X18199Y39499D02*
X19499D01*
X20000Y45500D02*
X21377Y44123D01*
X8500Y45500D02*
X20000D01*
X8500Y45500D02*
X8500Y45500D01*
X46621Y73120D02*
Y74603D01*
X44000Y70500D02*
X46621Y73120D01*
X17000Y66500D02*
Y69621D01*
X17879Y70500D01*
X44000D01*
X16000Y65500D02*
X17000Y66500D01*
X8500Y65500D02*
X16000D01*
X8500Y75500D02*
X15750D01*
X18992Y78742D01*
X19012D01*
D13*
X29300Y56100D02*
D03*
D14*
X19012Y78743D02*
D03*
X46620Y74604D02*
D03*
D15*
X8500Y35500D02*
D03*
X48500Y33500D02*
D03*
X50000Y39500D02*
D03*
X16000Y55500D02*
D03*
D16*
X8500Y75500D02*
D03*
X8500Y65500D02*
D03*
X8500Y55500D02*
D03*
X8500Y45500D02*
D03*
D17*
X18199Y39499D02*
D03*
X18199Y32499D02*
D03*
X41199Y39499D02*
D03*
X41199Y32499D02*
D03*
M02*
