G04*
G04 #@! TF.GenerationSoftware,Altium Limited,Altium Designer,20.0.2 (26)*
G04*
G04 Layer_Color=16711935*
%FSLAX25Y25*%
%MOIN*%
G70*
G01*
G75*
%ADD21C,0.01000*%
%ADD22C,0.00020*%
D21*
X44500Y24199D02*
G03*
X43000Y20577I3621J-3621D01*
G01*
X52950Y27699D02*
G03*
X44500Y24199I0J-11950D01*
G01*
X15000Y20577D02*
G03*
X13500Y24199I-5121J0D01*
G01*
D02*
G03*
X5050Y27699I-8450J-8450D01*
G01*
X13500Y88000D02*
G03*
X15000Y91621I-3621J3621D01*
G01*
X5050Y84500D02*
G03*
X13500Y88000I0J11950D01*
G01*
X44500D02*
G03*
X52950Y84500I8450J8450D01*
G01*
X43000Y91621D02*
G03*
X44500Y88000I5121J0D01*
G01*
X15135Y16209D02*
G03*
X42873Y16088I13865J-1010D01*
G01*
X42871Y96075D02*
G03*
X15175Y95545I-13871J925D01*
G01*
X43000Y15199D02*
Y20577D01*
X15000Y15199D02*
Y20577D01*
Y91621D02*
Y97000D01*
X43000Y91621D02*
Y97000D01*
X52950Y28000D02*
X57500D01*
X1000D02*
X5050D01*
X51500Y84500D02*
X57500D01*
X1000D02*
X7000D01*
X57500Y28000D02*
Y84500D01*
X1000Y28000D02*
Y84500D01*
D22*
X22727Y41971D02*
X22727Y29971D01*
X22727Y41971D02*
X36727Y41971D01*
X36727Y29971D02*
X36727Y41971D01*
X22727Y29971D02*
X36727Y29971D01*
M02*
