G04*
G04 #@! TF.GenerationSoftware,Altium Limited,Altium Designer,20.0.2 (26)*
G04*
G04 Layer_Color=32896*
%FSLAX25Y25*%
%MOIN*%
G70*
G01*
G75*
%ADD20C,0.00492*%
G36*
X53245Y69704D02*
X51464Y69053D01*
X50922Y68865D01*
X51482Y68676D01*
X53245Y68032D01*
Y67205D01*
X50150Y68427D01*
X50053Y68384D01*
X50010Y68360D01*
X49968Y68342D01*
X49937Y68323D01*
X49913Y68305D01*
X49901Y68299D01*
X49895Y68293D01*
X49810Y68238D01*
X49749Y68183D01*
X49725Y68159D01*
X49706Y68141D01*
X49694Y68129D01*
X49688Y68123D01*
X49627Y68056D01*
X49585Y67989D01*
X49567Y67965D01*
X49560Y67940D01*
X49548Y67928D01*
Y67922D01*
X49518Y67837D01*
X49506Y67764D01*
X49500Y67734D01*
Y67655D01*
X49506Y67618D01*
Y67545D01*
X49512Y67515D01*
Y67478D01*
X49518Y67442D01*
Y67411D01*
X49524Y67387D01*
Y67381D01*
X49530Y67351D01*
Y67326D01*
X49536Y67308D01*
Y67302D01*
X48910D01*
X48898Y67369D01*
X48892Y67430D01*
Y67454D01*
X48886Y67472D01*
Y67484D01*
X48880Y67551D01*
X48873Y67606D01*
Y67655D01*
X48880Y67770D01*
X48892Y67879D01*
X48904Y67977D01*
X48928Y68062D01*
X48946Y68129D01*
X48959Y68183D01*
X48971Y68214D01*
X48977Y68226D01*
X49019Y68323D01*
X49068Y68409D01*
X49123Y68488D01*
X49171Y68560D01*
X49214Y68615D01*
X49250Y68658D01*
X49281Y68682D01*
X49287Y68694D01*
X49366Y68773D01*
X49451Y68846D01*
X49536Y68907D01*
X49615Y68968D01*
X49682Y69010D01*
X49743Y69047D01*
X49779Y69071D01*
X49785Y69077D01*
X49791D01*
X49907Y69144D01*
X50029Y69205D01*
X50144Y69260D01*
X50254Y69314D01*
X50351Y69357D01*
X50387Y69375D01*
X50424Y69387D01*
X50454Y69399D01*
X50472Y69412D01*
X50485Y69418D01*
X50491D01*
X53245Y70500D01*
Y69704D01*
D02*
G37*
G36*
X52041Y66816D02*
X52144Y66809D01*
X52236Y66791D01*
X52321Y66779D01*
X52388Y66761D01*
X52442Y66743D01*
X52473Y66737D01*
X52485Y66730D01*
X52576Y66694D01*
X52661Y66657D01*
X52734Y66615D01*
X52801Y66572D01*
X52850Y66536D01*
X52892Y66505D01*
X52917Y66481D01*
X52923Y66475D01*
X52990Y66408D01*
X53044Y66335D01*
X53093Y66268D01*
X53136Y66201D01*
X53166Y66141D01*
X53190Y66092D01*
X53202Y66062D01*
X53209Y66049D01*
X53245Y65952D01*
X53269Y65855D01*
X53288Y65758D01*
X53300Y65666D01*
X53306Y65587D01*
X53312Y65527D01*
Y65472D01*
X53306Y65350D01*
X53294Y65235D01*
X53275Y65137D01*
X53251Y65046D01*
X53227Y64973D01*
X53209Y64919D01*
X53196Y64882D01*
X53190Y64876D01*
Y64870D01*
X53142Y64773D01*
X53087Y64688D01*
X53026Y64609D01*
X52971Y64542D01*
X52923Y64487D01*
X52880Y64450D01*
X52856Y64420D01*
X52844Y64414D01*
X52759Y64347D01*
X52667Y64286D01*
X52582Y64238D01*
X52497Y64195D01*
X52424Y64165D01*
X52369Y64140D01*
X52345Y64134D01*
X52327Y64128D01*
X52321Y64122D01*
X52315D01*
X52199Y64086D01*
X52078Y64061D01*
X51962Y64043D01*
X51853Y64031D01*
X51761Y64025D01*
X51725D01*
X51695Y64019D01*
X51664D01*
X51646D01*
X51634D01*
X51628D01*
X51494Y64025D01*
X51366Y64037D01*
X51251Y64049D01*
X51153Y64073D01*
X51068Y64092D01*
X51014Y64104D01*
X50989Y64110D01*
X50971Y64116D01*
X50965Y64122D01*
X50959D01*
X50855Y64165D01*
X50758Y64213D01*
X50679Y64262D01*
X50606Y64311D01*
X50551Y64353D01*
X50509Y64390D01*
X50485Y64414D01*
X50472Y64420D01*
X50406Y64499D01*
X50345Y64578D01*
X50290Y64657D01*
X50254Y64730D01*
X50217Y64797D01*
X50193Y64846D01*
X50181Y64882D01*
X50175Y64894D01*
X50144Y65004D01*
X50120Y65113D01*
X50102Y65216D01*
X50089Y65314D01*
X50083Y65399D01*
X50077Y65466D01*
Y65630D01*
X50083Y65679D01*
Y65758D01*
X50089Y65788D01*
Y65812D01*
X50102Y65922D01*
X50108Y65977D01*
X50114Y66019D01*
X50120Y66056D01*
Y66086D01*
X50126Y66104D01*
Y66110D01*
X50138Y66220D01*
X50150Y66262D01*
X50156Y66311D01*
X50162Y66341D01*
Y66372D01*
X50169Y66390D01*
Y66396D01*
X50193Y66493D01*
X50205Y66542D01*
X50211Y66578D01*
X50223Y66609D01*
X50229Y66639D01*
X50235Y66651D01*
Y66657D01*
X50825D01*
X50795Y66554D01*
X50770Y66457D01*
X50752Y66366D01*
X50734Y66281D01*
X50722Y66214D01*
X50710Y66159D01*
X50704Y66128D01*
Y66116D01*
X50691Y66025D01*
X50685Y65934D01*
X50679Y65855D01*
Y65782D01*
X50673Y65721D01*
Y65563D01*
X50679Y65496D01*
X50691Y65441D01*
X50704Y65387D01*
X50710Y65344D01*
X50722Y65314D01*
X50728Y65289D01*
Y65283D01*
X50776Y65174D01*
X50801Y65125D01*
X50825Y65089D01*
X50849Y65052D01*
X50868Y65028D01*
X50880Y65016D01*
X50886Y65010D01*
X50971Y64931D01*
X51050Y64876D01*
X51087Y64858D01*
X51117Y64846D01*
X51135Y64833D01*
X51141D01*
X51263Y64797D01*
X51324Y64785D01*
X51385Y64779D01*
X51433D01*
X51470Y64773D01*
X51500D01*
X51506D01*
Y66803D01*
X51585Y66809D01*
X51658D01*
X51688Y66816D01*
X51713D01*
X51725D01*
X51731D01*
X51816Y66822D01*
X51877D01*
X51901D01*
X51920D01*
X51926D01*
X51932D01*
X52041Y66816D01*
D02*
G37*
G36*
X52230Y62183D02*
X54127Y63538D01*
Y62633D01*
X52309Y61441D01*
X54127D01*
Y60681D01*
X50150D01*
Y61441D01*
X52071D01*
X50150Y62639D01*
Y63605D01*
X52230Y62183D01*
D02*
G37*
G36*
X55141Y30375D02*
X48859D01*
Y59625D01*
X55141D01*
Y30375D01*
D02*
G37*
%LPC*%
G36*
X52108Y66068D02*
X52071D01*
X52047D01*
X52041D01*
Y64785D01*
X52163Y64803D01*
X52266Y64827D01*
X52357Y64864D01*
X52436Y64900D01*
X52491Y64937D01*
X52534Y64961D01*
X52564Y64985D01*
X52570Y64991D01*
X52631Y65065D01*
X52680Y65144D01*
X52710Y65216D01*
X52734Y65289D01*
X52746Y65356D01*
X52759Y65405D01*
Y65454D01*
X52753Y65545D01*
X52734Y65618D01*
X52728Y65648D01*
X52716Y65672D01*
X52710Y65685D01*
Y65691D01*
X52673Y65770D01*
X52625Y65831D01*
X52607Y65855D01*
X52588Y65873D01*
X52582Y65879D01*
X52576Y65885D01*
X52509Y65940D01*
X52436Y65983D01*
X52406Y66001D01*
X52382Y66013D01*
X52363Y66019D01*
X52357D01*
X52254Y66049D01*
X52199Y66056D01*
X52151Y66062D01*
X52108Y66068D01*
D02*
G37*
G36*
X52753Y57563D02*
X50208D01*
D01*
X52753D01*
X50208Y57208D01*
Y56528D01*
X51012Y56257D01*
X51297Y56173D01*
X51007Y56093D01*
X50208Y55832D01*
Y54787D01*
Y55152D01*
X52753Y54787D01*
D01*
Y57563D01*
D02*
G37*
G36*
X52807Y54513D02*
X50147D01*
X51578D01*
X51508Y54507D01*
X51503D01*
X51493D01*
X51473D01*
X51447Y54502D01*
X51388D01*
X51323Y54497D01*
Y52828D01*
X51318D01*
X51293D01*
X51262Y52833D01*
X51222D01*
X51173Y52838D01*
X51122Y52847D01*
X51022Y52877D01*
X51017D01*
X51003Y52887D01*
X50977Y52898D01*
X50947Y52912D01*
X50883Y52957D01*
X50813Y53022D01*
X50807Y53027D01*
X50797Y53038D01*
X50783Y53057D01*
X50762Y53088D01*
X50743Y53118D01*
X50722Y53158D01*
X50682Y53247D01*
Y53253D01*
X50678Y53272D01*
X50668Y53298D01*
X50662Y53333D01*
X50652Y53377D01*
X50643Y53422D01*
X50638Y53478D01*
Y53607D01*
X50643Y53658D01*
Y53717D01*
X50647Y53782D01*
X50652Y53857D01*
X50662Y53932D01*
Y53943D01*
X50668Y53967D01*
X50678Y54013D01*
X50687Y54067D01*
X50703Y54137D01*
X50718Y54212D01*
X50738Y54293D01*
X50762Y54378D01*
X50278D01*
Y54373D01*
X50273Y54362D01*
X50267Y54338D01*
X50257Y54312D01*
X50252Y54282D01*
X50243Y54242D01*
X50222Y54163D01*
Y54158D01*
X50217Y54142D01*
Y54118D01*
X50213Y54093D01*
X50208Y54053D01*
X50197Y54018D01*
X50187Y53927D01*
Y53922D01*
X50182Y53908D01*
Y53882D01*
X50178Y53852D01*
X50173Y53817D01*
X50168Y53772D01*
X50157Y53683D01*
Y53663D01*
X50152Y53637D01*
Y53572D01*
X50147Y53532D01*
Y53398D01*
X50152Y53342D01*
X50157Y53272D01*
X50168Y53193D01*
X50182Y53108D01*
X50203Y53017D01*
X50227Y52928D01*
X50232Y52917D01*
X50243Y52887D01*
X50262Y52847D01*
X50292Y52793D01*
X50323Y52732D01*
X50367Y52667D01*
X50418Y52602D01*
X50472Y52538D01*
X50482Y52533D01*
X50503Y52513D01*
X50538Y52482D01*
X50582Y52447D01*
X50643Y52407D01*
X50708Y52368D01*
X50788Y52328D01*
X50872Y52293D01*
X50877D01*
X50883Y52288D01*
X50898Y52283D01*
X50918Y52277D01*
X50963Y52267D01*
X51033Y52253D01*
X51113Y52232D01*
X51208Y52223D01*
X51313Y52213D01*
X51423Y52207D01*
X51477D01*
X51503Y52213D01*
X51533D01*
X51608Y52218D01*
X51697Y52227D01*
X51793Y52242D01*
X51893Y52263D01*
X51987Y52293D01*
X51992D01*
X51998Y52298D01*
X52012Y52302D01*
X52033Y52307D01*
X52078Y52328D01*
X52138Y52352D01*
X52207Y52387D01*
X52277Y52428D01*
X52352Y52478D01*
X52422Y52533D01*
X52433Y52538D01*
X52452Y52562D01*
X52487Y52592D01*
X52527Y52637D01*
X52573Y52693D01*
X52622Y52758D01*
X52667Y52828D01*
X52707Y52908D01*
Y52912D01*
X52713Y52917D01*
X52723Y52947D01*
X52737Y52992D01*
X52758Y53053D01*
X52777Y53127D01*
X52793Y53207D01*
X52802Y53303D01*
X52807Y53403D01*
Y53448D01*
X52802Y53497D01*
X52798Y53562D01*
X52788Y53637D01*
X52772Y53717D01*
X52753Y53798D01*
X52723Y53878D01*
X52718Y53887D01*
X52707Y53913D01*
X52688Y53952D01*
X52662Y54002D01*
X52627Y54058D01*
X52587Y54112D01*
X52543Y54172D01*
X52487Y54228D01*
X52482Y54233D01*
X52463Y54252D01*
X52428Y54277D01*
X52387Y54308D01*
X52333Y54343D01*
X52272Y54378D01*
X52202Y54408D01*
X52127Y54438D01*
X52118Y54443D01*
X52092Y54448D01*
X52047Y54462D01*
X51992Y54478D01*
X51923Y54488D01*
X51847Y54502D01*
X51762Y54507D01*
X51673Y54513D01*
X52807D01*
D02*
G37*
G36*
X53852Y51667D02*
D01*
Y50612D01*
X53847Y50633D01*
X53838Y50682D01*
X53817Y50738D01*
Y50743D01*
X53812Y50753D01*
X53798Y50783D01*
X53768Y50823D01*
X53733Y50862D01*
Y50867D01*
X53723Y50872D01*
X53698Y50893D01*
X53653Y50923D01*
X53602Y50947D01*
X53597D01*
X53592Y50953D01*
X53578Y50958D01*
X53557Y50968D01*
X53508Y50977D01*
X53448Y50982D01*
X53443D01*
X53433D01*
X53417D01*
X53398Y50977D01*
X53347Y50968D01*
X53293Y50947D01*
X53288D01*
X53282Y50942D01*
X53253Y50928D01*
X53212Y50898D01*
X53167Y50862D01*
X53158Y50853D01*
X53137Y50827D01*
X53108Y50788D01*
X53083Y50738D01*
Y50732D01*
X53078Y50727D01*
X53073Y50713D01*
X53067Y50692D01*
X53057Y50643D01*
X53053Y50582D01*
Y50552D01*
X53057Y50533D01*
X53067Y50477D01*
X53083Y50423D01*
Y50418D01*
X53088Y50412D01*
X53102Y50378D01*
X53132Y50337D01*
X53167Y50292D01*
X53172D01*
X53177Y50283D01*
X53202Y50262D01*
X53242Y50238D01*
X53293Y50213D01*
X53298D01*
X53307Y50208D01*
X53322Y50203D01*
X53342Y50197D01*
X53387Y50187D01*
X53448Y50182D01*
X53452D01*
X53462D01*
X53478D01*
X53497Y50187D01*
X53548Y50197D01*
X53602Y50213D01*
X53607D01*
X53618Y50217D01*
X53648Y50232D01*
X53688Y50257D01*
X53733Y50292D01*
X53737Y50297D01*
X53742Y50302D01*
X53763Y50327D01*
X53793Y50372D01*
X53817Y50423D01*
Y50428D01*
X53822Y50437D01*
X53828Y50453D01*
X53838Y50472D01*
X53847Y50523D01*
X53852Y50582D01*
Y49503D01*
D01*
Y51667D01*
D02*
G37*
G36*
D02*
X50208D01*
Y49503D01*
X50682D01*
Y50308D01*
X52277D01*
Y49588D01*
X52753D01*
Y50933D01*
X50682D01*
Y51667D01*
X53852D01*
D02*
G37*
G36*
X53478Y49143D02*
X50208D01*
D01*
X53478D01*
X50208Y48138D01*
Y47322D01*
X53478Y46323D01*
D01*
Y49143D01*
D02*
G37*
G36*
X52802Y46183D02*
X50208D01*
Y45652D01*
X51938D01*
X51942D01*
X51952D01*
X51973D01*
X51992D01*
X52047D01*
X52103Y45647D01*
X52108D01*
X52118D01*
X52148Y45643D01*
X52183Y45638D01*
X52223Y45627D01*
X52232Y45623D01*
X52253Y45617D01*
X52277Y45603D01*
X52298Y45583D01*
X52302Y45577D01*
X52312Y45562D01*
X52318Y45537D01*
X52323Y45502D01*
Y45487D01*
X52318Y45472D01*
X52307Y45458D01*
X52298Y45432D01*
X52277Y45408D01*
X52248Y45382D01*
X52213Y45353D01*
X52207Y45347D01*
X52192Y45338D01*
X52167Y45322D01*
X52127Y45303D01*
X52078Y45278D01*
X52017Y45248D01*
X51942Y45217D01*
X51858Y45182D01*
X50208D01*
Y44223D01*
Y44657D01*
X51938D01*
X51942D01*
X51952D01*
X51973D01*
X51992D01*
X52047D01*
X52103Y44653D01*
X52108D01*
X52118D01*
X52148Y44647D01*
X52183Y44642D01*
X52223Y44633D01*
X52232Y44627D01*
X52253Y44622D01*
X52277Y44607D01*
X52298Y44587D01*
X52302Y44583D01*
X52312Y44567D01*
X52318Y44543D01*
X52323Y44508D01*
Y44497D01*
X52318Y44482D01*
X52307Y44467D01*
X52298Y44442D01*
X52277Y44418D01*
X52248Y44392D01*
X52213Y44363D01*
X52207Y44357D01*
X52192Y44348D01*
X52167Y44333D01*
X52127Y44313D01*
X52078Y44282D01*
X52017Y44258D01*
X51942Y44223D01*
X51858Y44188D01*
X50208D01*
Y43657D01*
X52753D01*
Y44107D01*
X52377Y44122D01*
X52382Y44128D01*
X52398Y44133D01*
X52417Y44142D01*
X52447Y44157D01*
X52508Y44192D01*
X52573Y44232D01*
X52578Y44238D01*
X52587Y44243D01*
X52618Y44267D01*
X52662Y44302D01*
X52702Y44348D01*
Y44352D01*
X52713Y44357D01*
X52732Y44388D01*
X52758Y44433D01*
X52777Y44482D01*
Y44488D01*
X52782Y44497D01*
X52788Y44508D01*
X52793Y44528D01*
X52798Y44578D01*
X52802Y44642D01*
Y44677D01*
X52798Y44712D01*
X52788Y44763D01*
X52772Y44813D01*
X52753Y44868D01*
X52728Y44918D01*
X52688Y44962D01*
X52683Y44967D01*
X52667Y44982D01*
X52643Y44998D01*
X52608Y45022D01*
X52562Y45042D01*
X52513Y45068D01*
X52447Y45083D01*
X52377Y45092D01*
X52382Y45098D01*
X52398Y45103D01*
X52417Y45112D01*
X52447Y45132D01*
X52508Y45167D01*
X52573Y45213D01*
X52578Y45217D01*
X52587Y45222D01*
X52618Y45252D01*
X52662Y45287D01*
X52702Y45333D01*
Y45338D01*
X52713Y45342D01*
X52732Y45373D01*
X52758Y45417D01*
X52777Y45472D01*
Y45478D01*
X52782Y45487D01*
X52788Y45502D01*
X52793Y45522D01*
X52798Y45573D01*
X52802Y45638D01*
Y45792D01*
Y45663D01*
X52798Y45682D01*
X52793Y45733D01*
X52777Y45792D01*
X52758Y45858D01*
X52723Y45928D01*
X52672Y45992D01*
X52608Y46047D01*
X52597Y46053D01*
X52573Y46068D01*
X52527Y46093D01*
X52463Y46117D01*
X52382Y46137D01*
X52283Y46163D01*
X52167Y46178D01*
X52033Y46183D01*
X52802D01*
D01*
D02*
G37*
G36*
X52807Y43158D02*
D01*
Y42127D01*
X52802Y42182D01*
Y42248D01*
X52793Y42322D01*
X52782Y42402D01*
X52772Y42483D01*
X52753Y42562D01*
Y42573D01*
X52742Y42597D01*
X52728Y42632D01*
X52713Y42682D01*
X52688Y42733D01*
X52658Y42792D01*
X52627Y42847D01*
X52587Y42897D01*
X52583Y42902D01*
X52567Y42917D01*
X52548Y42943D01*
X52513Y42972D01*
X52478Y43003D01*
X52428Y43038D01*
X52377Y43067D01*
X52318Y43093D01*
X52312Y43097D01*
X52288Y43102D01*
X52258Y43112D01*
X52213Y43128D01*
X52157Y43137D01*
X52092Y43148D01*
X52022Y43152D01*
X51942Y43158D01*
X52807D01*
X50147D01*
X50208D01*
Y42632D01*
X50538Y42617D01*
X50533Y42612D01*
X50523Y42603D01*
X50507Y42588D01*
X50488Y42568D01*
X50432Y42513D01*
X50378Y42448D01*
X50372Y42443D01*
X50367Y42432D01*
X50353Y42417D01*
X50337Y42393D01*
X50297Y42333D01*
X50257Y42257D01*
Y42252D01*
X50248Y42237D01*
X50243Y42217D01*
X50227Y42188D01*
X50217Y42158D01*
X50203Y42118D01*
X50178Y42028D01*
Y42022D01*
X50173Y42007D01*
X50168Y41982D01*
X50163Y41947D01*
X50157Y41908D01*
X50152Y41862D01*
X50147Y41758D01*
Y41723D01*
X50152Y41688D01*
X50157Y41642D01*
X50163Y41587D01*
X50173Y41528D01*
X50187Y41473D01*
X50208Y41412D01*
X50213Y41407D01*
X50217Y41388D01*
X50232Y41363D01*
X50248Y41328D01*
X50297Y41247D01*
X50362Y41168D01*
X50367Y41162D01*
X50383Y41153D01*
X50402Y41133D01*
X50432Y41113D01*
X50467Y41087D01*
X50512Y41063D01*
X50563Y41037D01*
X50612Y41017D01*
X50617D01*
X50638Y41008D01*
X50668Y41003D01*
X50708Y40993D01*
X50753Y40982D01*
X50807Y40977D01*
X50867Y40968D01*
X50963D01*
X50998Y40973D01*
X51042Y40977D01*
X51092Y40988D01*
X51148Y40997D01*
X51208Y41017D01*
X51262Y41043D01*
X51267Y41047D01*
X51288Y41058D01*
X51318Y41072D01*
X51353Y41098D01*
X51398Y41133D01*
X51437Y41173D01*
X51482Y41217D01*
X51528Y41273D01*
X51533Y41278D01*
X51547Y41302D01*
X51568Y41337D01*
X51592Y41383D01*
X51617Y41438D01*
X51648Y41502D01*
X51678Y41578D01*
X51702Y41662D01*
Y41668D01*
X51708Y41673D01*
Y41688D01*
X51713Y41702D01*
X51723Y41752D01*
X51737Y41818D01*
X51748Y41903D01*
X51758Y41993D01*
X51762Y42097D01*
X51767Y42213D01*
Y42548D01*
X51917D01*
X51923D01*
X51933D01*
X51952D01*
X51977Y42542D01*
X52033Y42538D01*
X52092Y42518D01*
X52097D01*
X52108Y42513D01*
X52122Y42507D01*
X52138Y42498D01*
X52183Y42467D01*
X52227Y42428D01*
X52232Y42423D01*
X52237Y42417D01*
X52248Y42402D01*
X52258Y42388D01*
X52288Y42333D01*
X52312Y42268D01*
Y42263D01*
X52318Y42252D01*
X52323Y42232D01*
X52333Y42202D01*
X52337Y42167D01*
X52342Y42127D01*
X52347Y42083D01*
Y41993D01*
X52342Y41947D01*
Y41892D01*
X52333Y41827D01*
X52323Y41752D01*
X52312Y41668D01*
X52293Y41587D01*
Y41578D01*
X52283Y41552D01*
X52272Y41508D01*
X52258Y41453D01*
X52237Y41388D01*
X52213Y41317D01*
X52153Y41168D01*
X52643D01*
X52648Y41177D01*
X52653Y41197D01*
X52667Y41238D01*
X52683Y41287D01*
X52702Y41348D01*
X52723Y41418D01*
X52737Y41497D01*
X52758Y41583D01*
Y41592D01*
X52767Y41622D01*
X52772Y41673D01*
X52782Y41737D01*
X52793Y41813D01*
X52798Y41892D01*
X52807Y41987D01*
Y40968D01*
D01*
Y43158D01*
D02*
G37*
G36*
Y40437D02*
X50147D01*
X51578D01*
X51508Y40433D01*
X51503D01*
X51493D01*
X51473D01*
X51447Y40428D01*
X51388D01*
X51323Y40422D01*
Y38752D01*
X51318D01*
X51293D01*
X51262Y38758D01*
X51222D01*
X51173Y38763D01*
X51122Y38772D01*
X51022Y38802D01*
X51017D01*
X51003Y38813D01*
X50977Y38822D01*
X50947Y38838D01*
X50883Y38882D01*
X50813Y38947D01*
X50807Y38952D01*
X50797Y38963D01*
X50783Y38982D01*
X50762Y39013D01*
X50743Y39042D01*
X50722Y39083D01*
X50682Y39173D01*
Y39178D01*
X50678Y39197D01*
X50668Y39222D01*
X50662Y39257D01*
X50652Y39303D01*
X50643Y39347D01*
X50638Y39402D01*
Y39533D01*
X50643Y39582D01*
Y39643D01*
X50647Y39707D01*
X50652Y39783D01*
X50662Y39858D01*
Y39867D01*
X50668Y39893D01*
X50678Y39937D01*
X50687Y39992D01*
X50703Y40062D01*
X50718Y40137D01*
X50738Y40218D01*
X50762Y40303D01*
X50278D01*
Y40297D01*
X50273Y40288D01*
X50267Y40262D01*
X50257Y40238D01*
X50252Y40207D01*
X50243Y40167D01*
X50222Y40088D01*
Y40082D01*
X50217Y40067D01*
Y40042D01*
X50213Y40018D01*
X50208Y39977D01*
X50197Y39942D01*
X50187Y39852D01*
Y39847D01*
X50182Y39832D01*
Y39808D01*
X50178Y39777D01*
X50173Y39742D01*
X50168Y39698D01*
X50157Y39608D01*
Y39588D01*
X50152Y39562D01*
Y39498D01*
X50147Y39457D01*
Y39472D01*
Y39457D01*
Y39323D01*
X50152Y39268D01*
X50157Y39197D01*
X50168Y39118D01*
X50182Y39033D01*
X50203Y38943D01*
X50227Y38853D01*
X50232Y38842D01*
X50243Y38813D01*
X50262Y38772D01*
X50292Y38717D01*
X50323Y38658D01*
X50367Y38592D01*
X50418Y38528D01*
X50472Y38462D01*
X50482Y38458D01*
X50503Y38438D01*
X50538Y38407D01*
X50582Y38372D01*
X50643Y38333D01*
X50708Y38293D01*
X50788Y38252D01*
X50872Y38217D01*
X50877D01*
X50883Y38212D01*
X50898Y38208D01*
X50918Y38203D01*
X50963Y38192D01*
X51033Y38177D01*
X51113Y38157D01*
X51208Y38148D01*
X51313Y38138D01*
X51423Y38133D01*
X52807D01*
Y39457D01*
Y39373D01*
X52802Y39423D01*
X52798Y39487D01*
X52788Y39562D01*
X52772Y39643D01*
X52753Y39722D01*
X52723Y39803D01*
X52718Y39812D01*
X52707Y39838D01*
X52688Y39878D01*
X52662Y39928D01*
X52627Y39983D01*
X52587Y40038D01*
X52543Y40097D01*
X52487Y40152D01*
X52482Y40157D01*
X52463Y40178D01*
X52428Y40203D01*
X52387Y40233D01*
X52333Y40268D01*
X52272Y40303D01*
X52202Y40332D01*
X52127Y40363D01*
X52118Y40367D01*
X52092Y40372D01*
X52047Y40387D01*
X51992Y40402D01*
X51923Y40413D01*
X51847Y40428D01*
X51762Y40433D01*
X51673Y40437D01*
X52807D01*
D02*
G37*
G36*
Y37663D02*
X50208D01*
D01*
X51762D01*
Y37047D01*
X51767D01*
X51788D01*
X51812D01*
X51847D01*
X51923Y37042D01*
X52003Y37032D01*
X52008D01*
X52017Y37027D01*
X52038Y37023D01*
X52062Y37018D01*
X52113Y36998D01*
X52167Y36968D01*
X52172D01*
X52178Y36963D01*
X52202Y36942D01*
X52237Y36908D01*
X52263Y36867D01*
Y36862D01*
X52267Y36858D01*
X52283Y36827D01*
X52293Y36788D01*
X52298Y36733D01*
Y36707D01*
X52293Y36683D01*
X52283Y36647D01*
X52267Y36603D01*
X52248Y36557D01*
X52223Y36507D01*
X52183Y36452D01*
X52178Y36448D01*
X52162Y36428D01*
X52132Y36397D01*
X52092Y36358D01*
X52043Y36312D01*
X51977Y36257D01*
X51903Y36202D01*
X51812Y36138D01*
X50208D01*
Y35513D01*
X52753D01*
Y36062D01*
X52377Y36088D01*
X52382Y36092D01*
X52393Y36097D01*
X52412Y36112D01*
X52438Y36127D01*
X52492Y36173D01*
X52552Y36228D01*
X52557Y36233D01*
X52567Y36242D01*
X52583Y36257D01*
X52597Y36277D01*
X52643Y36338D01*
X52688Y36402D01*
X52693Y36408D01*
X52697Y36417D01*
X52707Y36437D01*
X52718Y36463D01*
X52732Y36498D01*
X52747Y36533D01*
X52772Y36612D01*
Y36617D01*
X52777Y36632D01*
X52782Y36658D01*
X52793Y36693D01*
X52798Y36733D01*
X52802Y36777D01*
X52807Y36878D01*
Y36557D01*
Y36878D01*
Y36908D01*
X52802Y36948D01*
X52798Y36992D01*
X52793Y37042D01*
X52777Y37102D01*
X52763Y37157D01*
X52737Y37218D01*
X52732Y37222D01*
X52728Y37242D01*
X52713Y37273D01*
X52688Y37308D01*
X52662Y37343D01*
X52627Y37387D01*
X52587Y37427D01*
X52543Y37468D01*
X52538Y37473D01*
X52517Y37483D01*
X52492Y37503D01*
X52452Y37523D01*
X52403Y37547D01*
X52347Y37573D01*
X52283Y37598D01*
X52213Y37617D01*
X52202D01*
X52178Y37628D01*
X52138Y37633D01*
X52083Y37642D01*
X52017Y37653D01*
X51942Y37657D01*
X51858Y37663D01*
X52807D01*
D02*
G37*
G36*
Y36557D02*
Y35513D01*
D01*
Y36557D01*
D02*
G37*
G36*
X53742Y34723D02*
X50147D01*
X50208D01*
Y34192D01*
X50582Y34178D01*
X50577Y34172D01*
X50568Y34163D01*
X50547Y34148D01*
X50523Y34128D01*
X50463Y34073D01*
X50402Y34012D01*
X50397Y34007D01*
X50388Y33997D01*
X50372Y33983D01*
X50358Y33957D01*
X50308Y33898D01*
X50262Y33827D01*
Y33823D01*
X50252Y33812D01*
X50243Y33792D01*
X50232Y33768D01*
X50217Y33733D01*
X50203Y33698D01*
X50178Y33617D01*
Y33612D01*
X50173Y33597D01*
X50168Y33577D01*
X50163Y33547D01*
X50157Y33507D01*
X50152Y33468D01*
X50147Y33373D01*
Y33332D01*
X50152Y33292D01*
X50157Y33237D01*
X50168Y33178D01*
X50187Y33108D01*
X50208Y33042D01*
X50238Y32972D01*
X50243Y32963D01*
X50252Y32943D01*
X50273Y32912D01*
X50302Y32873D01*
X50337Y32822D01*
X50383Y32772D01*
X50432Y32722D01*
X50493Y32678D01*
X50503Y32673D01*
X50523Y32658D01*
X50558Y32638D01*
X50608Y32612D01*
X50662Y32583D01*
X50732Y32552D01*
X50813Y32522D01*
X50898Y32498D01*
X50902D01*
X50907D01*
X50923Y32493D01*
X50937Y32487D01*
X50987Y32478D01*
X51052Y32467D01*
X51133Y32458D01*
X51222Y32447D01*
X51323Y32443D01*
X51428Y32438D01*
X51487D01*
X51517Y32443D01*
X51552D01*
X51632Y32447D01*
X51727Y32462D01*
X51832Y32478D01*
X51933Y32502D01*
X52033Y32533D01*
X52038D01*
X52043Y32537D01*
X52057Y32542D01*
X52078Y32552D01*
X52122Y32572D01*
X52183Y32603D01*
X52253Y32642D01*
X52323Y32693D01*
X52398Y32748D01*
X52463Y32807D01*
X52473Y32818D01*
X52492Y32838D01*
X52522Y32877D01*
X52557Y32928D01*
X52597Y32987D01*
X52637Y33057D01*
X52678Y33138D01*
X52713Y33222D01*
Y33228D01*
X52718Y33233D01*
X52723Y33248D01*
X52728Y33263D01*
X52737Y33312D01*
X52758Y33378D01*
X52772Y33457D01*
X52782Y33547D01*
X52793Y33643D01*
X52798Y33748D01*
Y33808D01*
X52793Y33867D01*
X52782Y33937D01*
Y33953D01*
X52777Y33972D01*
Y33997D01*
X52767Y34053D01*
X52753Y34113D01*
X53742D01*
Y32438D01*
D01*
Y34723D01*
D02*
G37*
%LPD*%
G36*
X52753Y55367D02*
X51302Y55553D01*
X50918Y55598D01*
X51267Y55698D01*
X52047Y55953D01*
Y56418D01*
X51272Y56692D01*
X50912Y56808D01*
X51313Y56858D01*
X52753Y57007D01*
Y55367D01*
D02*
G37*
G36*
X51853Y53887D02*
X51893Y53882D01*
X51938Y53878D01*
X52022Y53852D01*
X52027D01*
X52043Y53847D01*
X52062Y53838D01*
X52087Y53822D01*
X52148Y53787D01*
X52202Y53742D01*
X52207Y53737D01*
X52213Y53733D01*
X52227Y53717D01*
X52242Y53698D01*
X52283Y53648D01*
X52312Y53583D01*
Y53578D01*
X52318Y53567D01*
X52328Y53548D01*
X52333Y53522D01*
X52347Y53462D01*
X52352Y53387D01*
Y53347D01*
X52342Y53307D01*
X52333Y53253D01*
X52312Y53193D01*
X52288Y53132D01*
X52248Y53067D01*
X52197Y53008D01*
X52192Y53003D01*
X52167Y52982D01*
X52132Y52962D01*
X52087Y52933D01*
X52022Y52903D01*
X51947Y52873D01*
X51863Y52852D01*
X51762Y52838D01*
Y53892D01*
X51767D01*
X51788D01*
X51818D01*
X51853Y53887D01*
D02*
G37*
G36*
X53478Y47023D02*
X51508Y47572D01*
X50862Y47752D01*
X51543Y47938D01*
X53478Y48487D01*
Y47023D01*
D02*
G37*
G36*
X51332Y42118D02*
X51328Y42083D01*
X51323Y42037D01*
X51318Y41998D01*
X51297Y41908D01*
Y41903D01*
X51293Y41892D01*
X51288Y41873D01*
X51278Y41848D01*
X51248Y41787D01*
X51213Y41732D01*
Y41728D01*
X51202Y41723D01*
X51178Y41697D01*
X51143Y41668D01*
X51092Y41638D01*
X51087D01*
X51082Y41633D01*
X51052Y41622D01*
X51003Y41612D01*
X50947Y41607D01*
X50942D01*
X50923D01*
X50893Y41612D01*
X50862Y41622D01*
X50823Y41633D01*
X50783Y41647D01*
X50748Y41673D01*
X50713Y41708D01*
X50708Y41712D01*
X50703Y41728D01*
X50687Y41747D01*
X50673Y41778D01*
X50657Y41818D01*
X50647Y41862D01*
X50638Y41917D01*
X50633Y41978D01*
Y42002D01*
X50638Y42028D01*
X50643Y42057D01*
X50652Y42097D01*
X50673Y42143D01*
X50692Y42193D01*
X50722Y42243D01*
X50727Y42248D01*
X50743Y42268D01*
X50762Y42298D01*
X50792Y42333D01*
X50827Y42377D01*
X50872Y42432D01*
X50928Y42487D01*
X50987Y42548D01*
X51332D01*
Y42118D01*
D02*
G37*
G36*
X51853Y39812D02*
X51893Y39808D01*
X51938Y39803D01*
X52022Y39777D01*
X52027D01*
X52043Y39772D01*
X52062Y39762D01*
X52087Y39748D01*
X52148Y39713D01*
X52202Y39667D01*
X52207Y39663D01*
X52213Y39658D01*
X52227Y39643D01*
X52242Y39623D01*
X52283Y39573D01*
X52312Y39507D01*
Y39503D01*
X52318Y39492D01*
X52328Y39472D01*
X52333Y39448D01*
X52347Y39388D01*
X52352Y39312D01*
Y39272D01*
X52342Y39233D01*
X52333Y39178D01*
X52312Y39118D01*
X52288Y39057D01*
X52248Y38993D01*
X52197Y38932D01*
X52192Y38928D01*
X52167Y38908D01*
X52132Y38888D01*
X52087Y38857D01*
X52022Y38827D01*
X51947Y38798D01*
X51863Y38778D01*
X51762Y38763D01*
Y39818D01*
X51767D01*
X51788D01*
X51818D01*
X51853Y39812D01*
D02*
G37*
G36*
X52807Y38133D02*
X51477D01*
X51503Y38138D01*
X51533D01*
X51608Y38142D01*
X51697Y38153D01*
X51793Y38168D01*
X51893Y38188D01*
X51987Y38217D01*
X51992D01*
X51998Y38223D01*
X52012Y38227D01*
X52033Y38232D01*
X52078Y38252D01*
X52138Y38278D01*
X52207Y38313D01*
X52277Y38353D01*
X52352Y38403D01*
X52422Y38458D01*
X52433Y38462D01*
X52452Y38487D01*
X52487Y38517D01*
X52527Y38563D01*
X52573Y38618D01*
X52622Y38682D01*
X52667Y38752D01*
X52707Y38833D01*
Y38838D01*
X52713Y38842D01*
X52723Y38873D01*
X52737Y38917D01*
X52758Y38978D01*
X52777Y39053D01*
X52793Y39132D01*
X52802Y39228D01*
X52807Y39327D01*
Y38133D01*
D02*
G37*
G36*
X52253Y34108D02*
X52258Y34097D01*
X52263Y34082D01*
X52267Y34062D01*
X52272Y34032D01*
X52283Y34003D01*
X52298Y33928D01*
Y33922D01*
X52302Y33907D01*
Y33887D01*
X52307Y33863D01*
X52312Y33792D01*
X52318Y33718D01*
Y33692D01*
X52312Y33663D01*
X52307Y33628D01*
X52302Y33588D01*
X52293Y33542D01*
X52272Y33492D01*
X52253Y33448D01*
X52248Y33443D01*
X52242Y33428D01*
X52227Y33408D01*
X52207Y33378D01*
X52183Y33347D01*
X52157Y33312D01*
X52083Y33248D01*
X52078Y33242D01*
X52062Y33233D01*
X52038Y33217D01*
X52008Y33202D01*
X51968Y33182D01*
X51923Y33163D01*
X51872Y33143D01*
X51812Y33123D01*
X51807D01*
X51788Y33117D01*
X51753Y33108D01*
X51713Y33103D01*
X51657Y33092D01*
X51597Y33083D01*
X51533Y33077D01*
X51458D01*
X51447D01*
X51423D01*
X51382D01*
X51332Y33083D01*
X51278D01*
X51218Y33088D01*
X51157Y33092D01*
X51098Y33103D01*
X51092D01*
X51073Y33108D01*
X51047Y33117D01*
X51012Y33123D01*
X50933Y33152D01*
X50893Y33167D01*
X50853Y33187D01*
X50848Y33193D01*
X50837Y33198D01*
X50823Y33213D01*
X50797Y33228D01*
X50753Y33272D01*
X50713Y33327D01*
Y33332D01*
X50708Y33342D01*
X50703Y33362D01*
X50692Y33382D01*
X50678Y33443D01*
X50673Y33518D01*
Y33542D01*
X50678Y33573D01*
X50687Y33612D01*
X50703Y33658D01*
X50727Y33707D01*
X50757Y33757D01*
X50797Y33812D01*
X50802Y33817D01*
X50823Y33838D01*
X50848Y33867D01*
X50888Y33902D01*
X50937Y33948D01*
X50993Y33997D01*
X51063Y34053D01*
X51138Y34113D01*
X52253D01*
Y34108D01*
D02*
G37*
D20*
X12638Y39699D02*
G03*
X12638Y39699I-39J0D01*
G01*
M02*
